<svg xmlns="http://www.w3.org/2000/svg" viewBox="0 0 1500 772" font-family="IBM Plex Sans, -apple-system, Segoe UI, Helvetica, Arial, sans-serif">
<defs><marker id="arr" viewBox="0 0 10 10" refX="9" refY="5" markerWidth="8" markerHeight="8" orient="auto-start-reverse"><path d="M0,0 L10,5 L0,10 z" fill="#1b2733"/></marker><marker id="arrg" viewBox="0 0 10 10" refX="9" refY="5" markerWidth="8" markerHeight="8" orient="auto-start-reverse"><path d="M0,0 L10,5 L0,10 z" fill="#2e5d43"/></marker><marker id="arra" viewBox="0 0 10 10" refX="9" refY="5" markerWidth="8" markerHeight="8" orient="auto-start-reverse"><path d="M0,0 L10,5 L0,10 z" fill="#8a4a12"/></marker><marker id="arrr" viewBox="0 0 10 10" refX="9" refY="5" markerWidth="8" markerHeight="8" orient="auto-start-reverse"><path d="M0,0 L10,5 L0,10 z" fill="#a33a2a"/></marker></defs>
<rect x="0" y="0" width="1500" height="772" rx="18" fill="#f2f5ea" stroke="#d8dfcd"/>
<text x="44" y="52" font-size="15" letter-spacing="4" fill="#5c6b60" font-family="IBM Plex Mono, ui-monospace, Menlo, monospace" font-weight="600">GPU SERVING  ·  VALIDATION FRAMEWORK</text>
<text x="1456" y="52" text-anchor="end" font-size="13" fill="#8a958b" font-family="IBM Plex Mono, ui-monospace, Menlo, monospace">portfolio · dae tan</text>
<rect x="44" y="88" width="610" height="372" rx="14" fill="none" stroke="#a33a2a" stroke-width="1.4" opacity="0.55" stroke-dasharray="7 5"/>
<text x="62" y="115" font-size="12.5" letter-spacing="3" fill="#a33a2a" font-family="IBM Plex Mono, ui-monospace, Menlo, monospace" font-weight="600">BASELINE  ·  DEDICATED SERVING</text>
<rect x="74" y="150" width="550" height="286" rx="14" fill="#ffffff" stroke="#d8dfcd"/>
<rect x="74" y="150" width="6" height="286" rx="3" fill="#a33a2a"/>
<text x="96" y="180" font-size="16" font-weight="700" fill="#16232e">Current topology to measure</text>
<text x="96" y="200" font-size="12.5" fill="#5c6b60">traffic, fleet, isolation, and price baseline</text>
<text x="96" y="231" font-size="13" fill="#33413a">Model placement and instance count</text>
<text x="96" y="251" font-size="13" fill="#33413a">Steady-state and peak utilization</text>
<text x="96" y="271" font-size="13" fill="#33413a">Latency distribution and saturation point</text>
<text x="96" y="291" font-size="13" fill="#33413a">Unit cost and non-accelerator bottlenecks</text>
<rect x="94" y="305" width="145" height="24" rx="7" fill="#fdf1ef"/>
<text x="104" y="322" font-size="11.5" fill="#a33a2a" font-family="IBM Plex Mono, ui-monospace, Menlo, monospace">measure utilization</text>
<rect x="249" y="305" width="145" height="24" rx="7" fill="#fdf1ef"/>
<text x="259" y="322" font-size="11.5" fill="#a33a2a" font-family="IBM Plex Mono, ui-monospace, Menlo, monospace">capture unit cost</text>
<rect x="846" y="88" width="610" height="372" rx="14" fill="none" stroke="#2e5d43" stroke-width="1.4" opacity="0.55" stroke-dasharray="7 5"/>
<text x="864" y="115" font-size="12.5" letter-spacing="3" fill="#2e5d43" font-family="IBM Plex Mono, ui-monospace, Menlo, monospace" font-weight="600">CANDIDATE  ·  SHARED BATCHED GPU</text>
<rect x="876" y="150" width="550" height="286" rx="14" fill="#ffffff" stroke="#d8dfcd"/>
<rect x="876" y="150" width="6" height="286" rx="3" fill="#2e5d43"/>
<text x="898" y="180" font-size="16" font-weight="700" fill="#16232e">Shared-serving hypothesis</text>
<text x="898" y="200" font-size="12.5" fill="#5c6b60">Triton batching and multi-model concurrency</text>
<text x="898" y="231" font-size="13" fill="#33413a">Tune batching against the latency target</text>
<text x="898" y="251" font-size="13" fill="#33413a">Test compatible models in shared GPU memory</text>
<text x="898" y="271" font-size="13" fill="#33413a">Measure density, quality, and recovery</text>
<text x="898" y="291" font-size="13" fill="#33413a">Reject the pattern if a gate fails</text>
<rect x="896" y="305" width="174" height="24" rx="7" fill="#eef2e4"/>
<text x="906" y="322" font-size="11.5" fill="#2e5d43" font-family="IBM Plex Mono, ui-monospace, Menlo, monospace">compare utilization</text>
<rect x="1080" y="305" width="104" height="24" rx="7" fill="#eef2e4"/>
<text x="1090" y="322" font-size="11.5" fill="#2e5d43" font-family="IBM Plex Mono, ui-monospace, Menlo, monospace">test p99 gate</text>
<polyline points="654,288 846,288" fill="none" stroke="#1b2733" stroke-width="2" marker-end="url(#arr)"/>
<rect x="701.0" y="259.0" width="98" height="21" rx="4" fill="#f2f5ea" opacity="0.92"/>
<text x="750.0" y="274.0" text-anchor="middle" font-size="13" fill="#1b2733" font-family="IBM Plex Mono, ui-monospace, Menlo, monospace">consolidate</text>
<text x="750" y="322" text-anchor="middle" font-size="12" fill="#5c6b60" font-family="IBM Plex Mono, ui-monospace, Menlo, monospace">dynamic batching</text>
<text x="750" y="340" text-anchor="middle" font-size="12" fill="#5c6b60" font-family="IBM Plex Mono, ui-monospace, Menlo, monospace">+ shared GPU</text>
<rect x="44" y="500" width="335" height="138" rx="14" fill="#ffffff" stroke="#d8dfcd"/>
<rect x="44" y="500" width="335" height="6" rx="3" fill="#2e5d43"/>
<text x="211.5" y="580" text-anchor="middle" font-size="46" font-weight="800" fill="#2e5d43" font-family="IBM Plex Mono, ui-monospace, Menlo, monospace">Δ TCO</text>
<text x="211.5" y="614" text-anchor="middle" font-size="14" fill="#5c6b60">versioned cost comparison</text>
<rect x="403" y="500" width="335" height="138" rx="14" fill="#ffffff" stroke="#d8dfcd"/>
<rect x="403" y="500" width="335" height="6" rx="3" fill="#2e5d43"/>
<text x="570.5" y="580" text-anchor="middle" font-size="46" font-weight="800" fill="#2e5d43" font-family="IBM Plex Mono, ui-monospace, Menlo, monospace">Δ UNIT</text>
<text x="570.5" y="614" text-anchor="middle" font-size="14" fill="#5c6b60">cost per 1,000 inferences</text>
<rect x="762" y="500" width="335" height="138" rx="14" fill="#ffffff" stroke="#d8dfcd"/>
<rect x="762" y="500" width="335" height="6" rx="3" fill="#1b2733"/>
<text x="929.5" y="580" text-anchor="middle" font-size="46" font-weight="800" fill="#1b2733" font-family="IBM Plex Mono, ui-monospace, Menlo, monospace">QPS</text>
<text x="929.5" y="614" text-anchor="middle" font-size="14" fill="#5c6b60">throughput and saturation</text>
<rect x="1121" y="500" width="335" height="138" rx="14" fill="#ffffff" stroke="#d8dfcd"/>
<rect x="1121" y="500" width="335" height="6" rx="3" fill="#1b2733"/>
<text x="1288.5" y="580" text-anchor="middle" font-size="46" font-weight="800" fill="#1b2733" font-family="IBM Plex Mono, ui-monospace, Menlo, monospace">p99</text>
<text x="1288.5" y="614" text-anchor="middle" font-size="14" fill="#5c6b60">latency under load</text>
<text x="750" y="694" text-anchor="middle" font-size="13.5" fill="#33413a">Hypothesis: batching and concurrency may improve density when model memory, traffic, and latency permit.</text>
<text x="750" y="716" text-anchor="middle" font-size="13.5" fill="#33413a">Decision: compare measured quality, performance, reliability, controls, and unit cost before progressing.</text>
<text x="750" y="748" text-anchor="middle" font-size="11.5" fill="#8a958b" font-family="IBM Plex Mono, ui-monospace, Menlo, monospace">illustrative validation framework · no benchmark or outcome is bundled</text>
</svg>
