<svg xmlns="http://www.w3.org/2000/svg" viewBox="0 0 1560 660" font-family="IBM Plex Sans, -apple-system, Segoe UI, Helvetica, Arial, sans-serif">
<defs><marker id="arr" viewBox="0 0 10 10" refX="9" refY="5" markerWidth="8" markerHeight="8" orient="auto-start-reverse"><path d="M0,0 L10,5 L0,10 z" fill="#1b2733"/></marker><marker id="arrg" viewBox="0 0 10 10" refX="9" refY="5" markerWidth="8" markerHeight="8" orient="auto-start-reverse"><path d="M0,0 L10,5 L0,10 z" fill="#2e5d43"/></marker><marker id="arra" viewBox="0 0 10 10" refX="9" refY="5" markerWidth="8" markerHeight="8" orient="auto-start-reverse"><path d="M0,0 L10,5 L0,10 z" fill="#8a4a12"/></marker></defs>
<rect x="0" y="0" width="1560" height="660" rx="18" fill="#f2f5ea" stroke="#d8dfcd"/>
<text x="44" y="52" font-size="15" letter-spacing="4" fill="#5c6b60" font-family="IBM Plex Mono, ui-monospace, Menlo, monospace" font-weight="600">MERIDIAN &#183; CONTINUOUS MLOPS LIFECYCLE</text>
<text x="1516" y="52" text-anchor="end" font-size="13" fill="#8a958b" font-family="IBM Plex Mono, ui-monospace, Menlo, monospace">SHIP &#8594; OBSERVE &#8594; RETRAIN &#8212; WITHOUT HUMANS IN THE HOT PATH</text>
<rect x="40" y="96" width="272" height="208" rx="14" fill="#ffffff" stroke="#d8dfcd"/>
<circle cx="70" cy="128" r="15" fill="#1b2733"/>
<text x="70" y="133" text-anchor="middle" font-size="14" font-weight="700" fill="#ffffff">1</text>
<text x="94" y="126" font-size="15" font-weight="700" fill="#16232e">Code &amp; CI</text>
<text x="94" y="144" font-size="11.5" fill="#5c6b60">Git PR workflow</text>
<text x="60" y="183" font-size="12.3" fill="#33413a">Unit + integration suites</text>
<text x="60" y="204" font-size="12.3" fill="#33413a">Feature contract tests</text>
<text x="60" y="225" font-size="12.3" fill="#33413a">Container image build</text>
<rect x="58" y="268" width="236" height="24" rx="7" fill="#eef2e4"/>
<text x="68" y="285" font-size="10.8" fill="#2e5d43" font-family="IBM Plex Mono, ui-monospace, Menlo, monospace">gate: all suites green</text>
<line x1="312" y1="200.0" x2="336" y2="200.0" stroke="#1b2733" stroke-width="2.5" marker-end="url(#arr)"/>
<rect x="336" y="96" width="272" height="208" rx="14" fill="#ffffff" stroke="#d8dfcd"/>
<circle cx="366" cy="128" r="15" fill="#2e5d43"/>
<text x="366" y="133" text-anchor="middle" font-size="14" font-weight="700" fill="#ffffff">2</text>
<text x="390" y="126" font-size="15" font-weight="700" fill="#16232e">MLflow Registry</text>
<text x="390" y="144" font-size="11.5" fill="#5c6b60">Experiment &amp; release governance</text>
<text x="356" y="183" font-size="12.3" fill="#33413a">Params, metrics, loss curves</text>
<text x="356" y="204" font-size="12.3" fill="#33413a">ONNX-serialized artifacts</text>
<text x="356" y="225" font-size="12.3" fill="#33413a">Staging &#8594; Production gates</text>
<rect x="354" y="268" width="236" height="24" rx="7" fill="#eef2e4"/>
<text x="364" y="285" font-size="10.8" fill="#2e5d43" font-family="IBM Plex Mono, ui-monospace, Menlo, monospace">gate: eval &#8805; champion</text>
<line x1="608" y1="200.0" x2="632" y2="200.0" stroke="#1b2733" stroke-width="2.5" marker-end="url(#arr)"/>
<rect x="632" y="96" width="272" height="208" rx="14" fill="#ffffff" stroke="#d8dfcd"/>
<circle cx="662" cy="128" r="15" fill="#1b2733"/>
<text x="662" y="133" text-anchor="middle" font-size="14" font-weight="700" fill="#ffffff">3</text>
<text x="686" y="126" font-size="15" font-weight="700" fill="#16232e">EKS Rollout</text>
<text x="686" y="144" font-size="11.5" fill="#5c6b60">Kubernetes CD</text>
<text x="652" y="183" font-size="12.3" fill="#33413a">Progressive canary deploy</text>
<text x="652" y="204" font-size="12.3" fill="#33413a">Config-as-code manifests</text>
<text x="652" y="225" font-size="12.3" fill="#33413a">Instant rollback on SLO breach</text>
<rect x="650" y="268" width="236" height="24" rx="7" fill="#eef2e4"/>
<text x="660" y="285" font-size="10.8" fill="#2e5d43" font-family="IBM Plex Mono, ui-monospace, Menlo, monospace">gate: canary SLOs hold</text>
<line x1="904" y1="200.0" x2="928" y2="200.0" stroke="#1b2733" stroke-width="2.5" marker-end="url(#arr)"/>
<rect x="928" y="96" width="272" height="208" rx="14" fill="#ffffff" stroke="#d8dfcd"/>
<circle cx="958" cy="128" r="15" fill="#8a4a12"/>
<text x="958" y="133" text-anchor="middle" font-size="14" font-weight="700" fill="#ffffff">4</text>
<text x="982" y="126" font-size="15" font-weight="700" fill="#16232e">Triton Serving</text>
<text x="982" y="144" font-size="11.5" fill="#5c6b60">GPU inference plane</text>
<text x="948" y="183" font-size="12.3" fill="#33413a">Dynamic batching &#183; 10 ms</text>
<text x="948" y="204" font-size="12.3" fill="#33413a">Multi-model GPU concurrency</text>
<text x="948" y="225" font-size="12.3" fill="#33413a">p99 &lt;150 ms &#183; T4 pool</text>
<rect x="946" y="268" width="236" height="24" rx="7" fill="#fbf7ec"/>
<text x="956" y="285" font-size="10.8" fill="#8a4a12" font-family="IBM Plex Mono, ui-monospace, Menlo, monospace">SLO: p99 &lt;150 ms</text>
<line x1="1200" y1="200.0" x2="1224" y2="200.0" stroke="#1b2733" stroke-width="2.5" marker-end="url(#arr)"/>
<rect x="1224" y="96" width="272" height="208" rx="14" fill="#ffffff" stroke="#d8dfcd"/>
<circle cx="1254" cy="128" r="15" fill="#a33a2a"/>
<text x="1254" y="133" text-anchor="middle" font-size="14" font-weight="700" fill="#ffffff">5</text>
<text x="1278" y="126" font-size="15" font-weight="700" fill="#16232e">Evidently Monitoring</text>
<text x="1278" y="144" font-size="11.5" fill="#5c6b60">Statistical drift detection</text>
<text x="1244" y="183" font-size="12.3" fill="#33413a">Feature: Wasserstein &gt; 0.15 warn</text>
<text x="1244" y="204" font-size="12.3" fill="#33413a">Target: PSI &gt; 0.20 retrain</text>
<text x="1244" y="225" font-size="12.3" fill="#33413a">Concept: Page-Hinkley &gt; 3&#963; halt</text>
<rect x="1242" y="268" width="236" height="24" rx="7" fill="#fdf1ef"/>
<text x="1252" y="285" font-size="10.8" fill="#a33a2a" font-family="IBM Plex Mono, ui-monospace, Menlo, monospace">auto-webhook on breach</text>
<rect x="40" y="368" width="1480" height="150" rx="14" fill="#fbf7ec" stroke="#e3d9bd"/>
<text x="64" y="400" font-size="14.5" font-weight="700" fill="#8a4a12">Closed-loop automated retraining</text>
<text x="64" y="424" font-size="12.8" fill="#33413a">PSI &gt; 0.20 fires a webhook &#8594; Airflow retraining DAG rebuilds the training set from the Feast offline store &#8594; challenger evaluated against champion &#8594;</text>
<text x="64" y="444" font-size="12.8" fill="#33413a">auto-promoted through the same Staging &#8594; Production gates. Concept drift (Page-Hinkley &gt; 3&#963;) instead pauses automated pricing and pages a data scientist.</text>
<rect x="64" y="464" width="620" height="30" rx="8" fill="#ffffff" stroke="#e3d9bd"/>
<text x="80" y="484" font-size="12" fill="#8a4a12" font-family="IBM Plex Mono, ui-monospace, Menlo, monospace">drift webhook &#8594; airflow dag: retrain_evaluate_promote</text>
<path d="M1448,304 V343 H1000 V368" fill="none" stroke="#8a4a12" stroke-width="2.2" stroke-dasharray="7 5" marker-end="url(#arra)"/>
<path d="M700,518 V560 H472 V310" fill="none" stroke="#8a4a12" stroke-width="2.2" stroke-dasharray="7 5" marker-end="url(#arra)"/>
<text x="590" y="584" text-anchor="middle" font-size="11.5" fill="#8a4a12" font-style="italic">challenger re-enters registry gates &#8212; no manual redeploy</text>
<text x="44" y="634" font-size="12.5" fill="#8a958b">Outcome: 85% reduction in manual model-maintenance hours &#8212; models self-correct in production while engineers ship features.</text>
</svg>
